<?xml version="1.0" encoding="UTF-8" standalone="no"?>
<!DOCTYPE svg PUBLIC "-//W3C//DTD SVG 1.1//EN"
 "http://www.w3.org/Graphics/SVG/1.1/DTD/svg11.dtd">
<!-- Generated by graphviz version 14.1.4 (20260321.0153)
 -->
<!-- Title: projection Pages: 1 -->
<svg width="452pt" height="233pt"
 viewBox="0.00 0.00 452.00 233.00" xmlns="http://www.w3.org/2000/svg" xmlns:xlink="http://www.w3.org/1999/xlink">
<g id="graph0" class="graph" transform="scale(1 1) rotate(0) translate(4 229)">
<title>projection</title>
<polygon fill="white" stroke="none" points="-4,4 -4,-229 448,-229 448,4 -4,4"/>
<text xml:space="preserve" text-anchor="middle" x="222" y="-207.7" font-family="Times,serif" font-size="14.00">Projection: same focal length, wider buffer = wider FOV</text>
<g id="clust1" class="cluster">
<title>cluster_og</title>
<polygon fill="none" stroke="black" stroke-dasharray="5,2" points="8,-8 8,-133.5 144,-133.5 144,-8 8,-8"/>
<text xml:space="preserve" text-anchor="middle" x="76" y="-116.2" font-family="Times,serif" font-size="14.00">OG Doom (320x200)</text>
</g>
<g id="clust2" class="cluster">
<title>cluster_wide</title>
<polygon fill="none" stroke="black" stroke-dasharray="5,2" points="152,-8 152,-133.5 292,-133.5 292,-8 152,-8"/>
<text xml:space="preserve" text-anchor="middle" x="222" y="-116.2" font-family="Times,serif" font-size="14.00">Widescreen (382x200)</text>
</g>
<g id="clust3" class="cluster">
<title>cluster_ultra</title>
<polygon fill="none" stroke="black" stroke-dasharray="5,2" points="300,-8 300,-133.5 436,-133.5 436,-8 300,-8"/>
<text xml:space="preserve" text-anchor="middle" x="368" y="-116.2" font-family="Times,serif" font-size="14.00">Ultrawide (534x200)</text>
</g>
<!-- og -->
<g id="node1" class="node">
<title>og</title>
<text xml:space="preserve" text-anchor="start" x="31" y="-83.25" font-family="monospace" font-size="10.00">hfov = 90.0 deg</text>
<text xml:space="preserve" text-anchor="start" x="31" y="-64.5" font-family="monospace" font-size="10.00">vfov = 64.0 deg</text>
<text xml:space="preserve" text-anchor="start" x="34" y="-45.75" font-family="monospace" font-size="10.00">focal = 160 px</text>
<text xml:space="preserve" text-anchor="start" x="28" y="-27" font-family="monospace" font-size="10.00">projection = 160</text>
</g>
<!-- wide -->
<g id="node2" class="node">
<title>wide</title>
<text xml:space="preserve" text-anchor="start" x="174" y="-83.25" font-family="monospace" font-size="10.00">hfov = 100.1 deg</text>
<text xml:space="preserve" text-anchor="start" x="177" y="-64.5" font-family="monospace" font-size="10.00">vfov = 64.0 deg</text>
<text xml:space="preserve" text-anchor="start" x="180" y="-45.75" font-family="monospace" font-size="10.00">focal = 160 px</text>
<text xml:space="preserve" text-anchor="start" x="174" y="-27" font-family="monospace" font-size="10.00">projection = 191</text>
</g>
<!-- ultra -->
<g id="node3" class="node">
<title>ultra</title>
<text xml:space="preserve" text-anchor="start" x="320" y="-83.25" font-family="monospace" font-size="10.00">hfov = 118.2 deg</text>
<text xml:space="preserve" text-anchor="start" x="323" y="-64.5" font-family="monospace" font-size="10.00">vfov = 64.0 deg</text>
<text xml:space="preserve" text-anchor="start" x="326" y="-45.75" font-family="monospace" font-size="10.00">focal = 160 px</text>
<text xml:space="preserve" text-anchor="start" x="320" y="-27" font-family="monospace" font-size="10.00">projection = 267</text>
</g>
<!-- shared -->
<g id="node4" class="node">
<title>shared</title>
<path fill="none" stroke="black" d="M299,-200.5C299,-200.5 145,-200.5 145,-200.5 139,-200.5 133,-194.5 133,-188.5 133,-188.5 133,-153.5 133,-153.5 133,-147.5 139,-141.5 145,-141.5 145,-141.5 299,-141.5 299,-141.5 305,-141.5 311,-147.5 311,-153.5 311,-153.5 311,-188.5 311,-188.5 311,-194.5 305,-200.5 299,-200.5"/>
<text xml:space="preserve" text-anchor="middle" x="222" y="-187" font-family="monospace" font-size="10.00">og_projection(90 deg, w, h)</text>
<text xml:space="preserve" text-anchor="middle" x="222" y="-174.25" font-family="monospace" font-size="10.00">focal = 160 / tan(45) = 160</text>
<text xml:space="preserve" text-anchor="middle" x="222" y="-161.5" font-family="monospace" font-size="10.00">hfov = 2*atan(w/2 / 160)</text>
<text xml:space="preserve" text-anchor="middle" x="222" y="-148.75" font-family="monospace" font-size="10.00">vfov = 2*atan(h/2 / 160)</text>
</g>
<!-- shared&#45;&gt;og -->
<g id="edge1" class="edge">
<title>shared&#45;&gt;og</title>
<path fill="none" stroke="black" d="M159.32,-141.03C155.4,-138.63 151.59,-136.11 148,-133.5 138.12,-126.32 128.4,-117.72 119.45,-108.96"/>
<polygon fill="black" stroke="black" points="122.06,-106.62 112.54,-101.98 117.09,-111.55 122.06,-106.62"/>
</g>
<!-- shared&#45;&gt;wide -->
<g id="edge2" class="edge">
<title>shared&#45;&gt;wide</title>
<path fill="none" stroke="black" d="M222,-141.26C222,-132.34 222,-122.21 222,-112.19"/>
<polygon fill="black" stroke="black" points="225.5,-112.51 222,-102.51 218.5,-112.51 225.5,-112.51"/>
</g>
<!-- shared&#45;&gt;ultra -->
<g id="edge3" class="edge">
<title>shared&#45;&gt;ultra</title>
<path fill="none" stroke="black" d="M284.68,-141.03C288.6,-138.63 292.41,-136.11 296,-133.5 305.88,-126.32 315.6,-117.72 324.55,-108.96"/>
<polygon fill="black" stroke="black" points="326.91,-111.55 331.46,-101.98 321.94,-106.62 326.91,-111.55"/>
</g>
</g>
</svg>
